<?xml version="1.0" standalone="no"?>
<!DOCTYPE svg PUBLIC "-//W3C//DTD SVG 20010904//EN"
 "http://www.w3.org/TR/2001/REC-SVG-20010904/DTD/svg10.dtd">
<svg version="1.0" xmlns="http://www.w3.org/2000/svg"
 width="700.000000pt" height="700.000000pt" viewBox="0 0 700.000000 700.000000"
 preserveAspectRatio="xMidYMid meet">
<metadata>
Created by potrace 1.14, written by Peter Selinger 2001-2017
</metadata>
<g transform="translate(0.000000,700.000000) scale(0.100000,-0.100000)"
fill="#000000" stroke="none">
<path d="M2450 6498 c-14 -5 -33 -11 -44 -13 -32 -7 -244 -112 -334 -167 -170
-102 -327 -222 -437 -332 -69 -70 -142 -156 -131 -156 2 0 40 25 83 56 77 56
212 137 308 187 191 99 339 133 384 88 59 -59 71 -297 26 -518 -72 -351 -182
-635 -332 -861 -24 -35 -43 -65 -43 -68 0 -15 96 65 167 139 206 214 369 500
459 806 27 92 80 306 88 356 36 230 24 412 -33 478 -12 14 -28 18 -76 16 -33
-1 -72 -6 -85 -11z"/>
<path d="M4423 6454 c-93 -13 -263 -55 -258 -64 2 -3 -7 -6 -20 -6 -24 -2
-207 -88 -228 -108 -7 -6 -39 -31 -72 -56 -84 -62 -185 -165 -244 -248 l-23
-33 34 21 c108 65 315 141 426 156 26 3 50 8 55 11 14 9 245 4 303 -6 32 -6
73 -13 89 -15 37 -6 168 -48 210 -67 52 -23 113 -68 140 -103 49 -64 47 -162
-5 -291 -61 -151 -192 -358 -314 -495 l-31 -35 33 30 c29 26 258 257 302 304
103 111 240 313 305 446 97 201 102 311 19 396 -118 121 -467 200 -721 163z"/>
<path d="M3310 6053 c-270 -230 -457 -556 -526 -918 -26 -134 -24 -337 4 -438
48 -169 141 -301 279 -394 46 -31 56 -34 94 -28 73 13 241 7 319 -10 97 -21
80 -16 169 -51 30 -13 41 -11 125 17 120 40 235 102 350 189 90 68 214 182
265 246 13 16 33 40 45 53 24 27 15 23 -64 -29 -233 -153 -518 -214 -740 -159
-132 33 -233 91 -330 188 -117 117 -166 215 -195 386 -33 202 19 505 129 736
14 31 26 61 26 67 0 7 5 12 10 12 6 0 10 6 10 13 0 6 23 47 50 91 28 43 50 80
48 81 -2 2 -32 -21 -68 -52z"/>
<path d="M1200 5906 c-217 -189 -380 -438 -439 -671 -21 -84 -23 -104 -26
-230 -7 -264 70 -488 236 -690 87 -105 165 -169 263 -216 55 -26 61 -27 95
-14 35 14 127 38 186 50 17 3 71 8 120 12 68 5 99 11 125 28 62 39 267 232
262 247 -1 5 1 7 5 5 5 -3 44 31 88 75 l80 80 -65 -47 c-85 -63 -209 -121
-289 -135 -67 -12 -222 -10 -214 3 2 4 -2 7 -10 7 -26 0 -116 50 -174 96 -171
139 -288 323 -350 551 -22 82 -26 120 -27 233 -1 159 4 202 40 318 31 104 81
214 132 291 48 72 54 81 50 81 -2 0 -41 -33 -88 -74z"/>
<path d="M6040 5184 c-116 -31 -308 -140 -470 -268 -136 -107 -362 -318 -441
-411 -34 -40 -27 -36 52 34 51 45 221 165 300 212 155 93 326 138 412 110 96
-32 188 -214 222 -439 12 -82 14 -340 2 -359 -3 -5 -8 -29 -12 -53 -7 -53 -30
-139 -51 -193 -8 -21 -11 -44 -8 -50 4 -7 3 -9 -1 -4 -5 4 -20 -19 -34 -51
-14 -31 -36 -75 -48 -95 -13 -21 -23 -40 -23 -43 0 -26 255 221 307 297 64 93
150 282 168 368 2 9 8 36 14 61 5 25 13 59 16 75 11 52 14 318 4 370 -5 28
-12 64 -15 80 -26 158 -132 346 -206 367 -40 11 -131 7 -188 -8z"/>
<path d="M4680 4398 c-152 -135 -221 -211 -308 -339 -65 -98 -106 -180 -142
-288 l-30 -89 21 -48 c52 -116 73 -288 57 -449 -7 -68 -6 -71 26 -120 104
-157 277 -263 471 -292 65 -9 213 -9 293 0 218 26 558 158 712 277 88 68 232
205 303 288 30 35 23 42 -14 13 -13 -10 -53 -33 -89 -52 -36 -19 -67 -36 -70
-39 -5 -6 -75 -33 -185 -74 -266 -98 -535 -117 -738 -53 -215 69 -377 237
-449 467 -19 64 -23 95 -22 210 0 114 4 150 27 233 31 115 77 218 141 316 25
39 42 71 38 71 -4 0 -23 -15 -42 -32z"/>
<path d="M3075 4009 c-33 -5 -91 -16 -130 -25 -38 -9 -77 -17 -85 -19 -86 -11
-158 -30 -153 -39 4 -8 3 -8 -6 0 -12 11 -74 7 -67 -5 2 -3 -12 -6 -32 -7 -36
-1 -84 -7 -207 -24 -33 -5 -172 -6 -310 -3 -446 10 -481 9 -583 -16 -58 -14
-90 -27 -86 -33 4 -7 2 -8 -4 -4 -14 8 -119 -39 -193 -86 -83 -53 -207 -181
-265 -273 l-19 -30 36 21 c61 36 193 78 289 91 64 9 217 9 310 0 74 -7 424 -9
455 -3 11 2 47 7 80 10 76 9 105 13 240 38 61 11 120 22 133 24 46 8 69 13
142 29 112 24 125 26 260 30 429 14 708 -183 796 -561 35 -154 26 -255 -62
-706 -2 -13 -7 -39 -10 -58 -4 -19 -8 -44 -10 -55 -32 -172 -38 -257 -38 -490
0 -137 2 -305 5 -372 8 -179 -16 -314 -77 -435 -13 -26 -24 -50 -24 -52 0 -3
26 12 58 33 72 49 196 172 230 231 14 25 29 47 32 50 11 10 60 117 60 131 0 8
4 19 9 25 5 5 18 47 27 94 14 66 18 120 15 240 -9 433 -5 663 14 760 14 75 19
109 20 142 0 20 4 34 9 31 5 -3 7 8 4 26 -2 17 -2 28 1 25 3 -3 13 37 23 88 9
51 19 104 22 118 44 219 52 340 31 460 -68 386 -327 597 -745 605 -74 2 -162
-1 -195 -6z"/>
<path d="M865 3797 c-98 -85 -216 -208 -290 -300 -16 -21 -35 -44 -41 -50 -51
-57 -151 -204 -179 -262 -122 -257 -148 -485 -90 -794 3 -19 10 -42 15 -52 6
-10 10 -25 10 -33 0 -32 85 -214 135 -291 57 -87 178 -217 265 -287 30 -24
117 -79 193 -123 344 -198 527 -382 727 -730 162 -283 343 -447 617 -558 264
-107 622 -108 873 0 112 48 226 114 285 166 14 12 37 31 51 42 172 135 274
235 389 380 l48 60 -74 -71 c-96 -92 -132 -124 -141 -124 -3 0 -13 -6 -20 -14
-14 -14 -118 -69 -188 -100 -184 -82 -468 -112 -670 -71 -297 59 -552 213
-719 435 -32 42 -90 134 -130 203 -178 312 -363 503 -647 671 -209 123 -276
171 -361 255 -104 105 -163 179 -213 274 -115 216 -164 468 -138 712 25 225
142 479 299 646 40 42 63 69 58 69 -2 -1 -31 -24 -64 -53z"/>
<path d="M6177 2664 c-1 -1 -32 -5 -69 -8 -308 -31 -733 -192 -1035 -393 -129
-85 -329 -269 -364 -334 -10 -19 4 -28 15 -10 8 12 173 110 251 149 135 68
300 136 415 171 103 31 143 42 230 60 249 52 478 43 542 -21 52 -52 -7 -250
-145 -488 -38 -66 -101 -165 -127 -200 -15 -19 -36 -48 -46 -65 l-19 -30 45
35 c217 167 515 591 611 866 26 75 35 173 20 202 -22 41 -107 64 -244 66 -43
1 -79 1 -80 0z"/>
<path d="M4444 2029 c-67 -52 -175 -161 -236 -237 -51 -65 -58 -79 -59 -120
-1 -26 -1 -51 0 -55 1 -4 -4 -36 -9 -70 -6 -34 -14 -78 -17 -97 -3 -19 -15
-62 -27 -95 -21 -57 -22 -62 -7 -101 45 -117 210 -292 350 -373 184 -105 353
-150 551 -149 270 3 476 85 737 295 51 41 91 80 90 86 -1 6 3 11 10 12 12 0
107 98 144 147 17 24 10 21 -53 -20 -206 -136 -410 -195 -643 -187 -107 4
-124 6 -212 26 -282 62 -587 310 -654 532 -37 119 -17 261 53 385 16 28 28 52
25 52 -2 0 -22 -14 -43 -31z"/>
</g>
</svg>
