<svg width="70" height="65" fill="none" xmlns="http://www.w3.org/2000/svg"><path fill-rule="evenodd" clip-rule="evenodd" d="M25.411.86c-2.076.452-4.816 2.168-6.583 4.124-1.59 1.759-2.951 4.34-3.44 6.525-.79 3.527-.331 7.135 1.33 10.478 2.005 4.034 4.766 6.176 7.962 6.176 2.986 0 5.626-1.856 7.108-4.997.957-2.03 1.272-4.151 1.269-8.548-.002-2.705-.105-4.166-.424-6.019-.474-2.757-1.398-5.075-2.528-6.347-.515-.58-1.437-1.168-2.125-1.357-.688-.19-1.794-.205-2.569-.036zM42.042.85c-2.466.709-4.05 3.366-4.8 8.06-.489 3.055-.556 7.295-.168 10.52.614 5.096 3.997 8.734 8.117 8.73 1.017-.001 1.768-.144 2.636-.502 2.126-.877 3.96-2.828 5.41-5.757.711-1.438 1.128-2.612 1.434-4.042.204-.954.23-1.258.233-2.816.004-1.976-.137-2.912-.69-4.584-1.428-4.319-5.048-8.095-9.01-9.4-.65-.214-.96-.265-1.776-.291-.66-.021-1.121.006-1.386.082zM5.875 17.776c-.855.268-1.678.975-2.33 1.998C2.277 21.767 1.1 26.102.844 29.718c-.3 4.224.866 7.895 3.264 10.28 1.156 1.15 2.315 1.903 3.803 2.471 2.559.978 5.525.945 7.136-.08 1.035-.658 1.85-1.888 2.256-3.408.175-.652.194-.92.194-2.726 0-1.712-.027-2.152-.193-3.043-1.243-6.68-5.137-13.417-8.749-15.138-1.04-.496-1.786-.579-2.68-.298zm56.43-.062c-2.415.621-5.079 3.573-7.221 8.002-1.767 3.652-2.727 7.38-2.726 10.582 0 2.544.505 4.151 1.693 5.4.981 1.03 2.216 1.47 4.126 1.47 1.179.001 1.856-.092 2.934-.4 1.868-.537 3.317-1.392 4.685-2.766 1.957-1.964 2.99-4.437 3.268-7.817.313-3.824-1.087-10.06-2.83-12.602-1.065-1.554-2.5-2.236-3.929-1.869zm-29.111 10.92c-2.495.345-4.366 1.387-6.044 3.367-.415.49-1.395 1.843-2.178 3.009-1.566 2.33-2.348 3.408-3.22 4.44-.713.843-2.406 2.48-3.251 3.145-2.274 1.786-3.878 4.357-4.445 7.125-.34 1.66-.231 3.965.269 5.682.227.78.888 2.234 1.345 2.96 1.154 1.83 2.981 3.446 4.993 4.418 1.807.873 3.217 1.196 5.221 1.196 1.497 0 2.276-.12 3.87-.593 3.412-1.014 6.816-1.05 10.012-.109 1.488.44 2.123.574 3.197.68 2.37.234 4.951-.343 7.066-1.582 3.029-1.772 5.067-4.553 5.799-7.911.23-1.058.275-3.464.082-4.448-.616-3.153-1.943-5.294-4.7-7.584-1.339-1.112-2.972-2.814-3.976-4.142-.472-.625-1.487-2.076-2.256-3.224-1.472-2.199-2.039-2.944-2.883-3.793-.94-.946-1.879-1.576-3.047-2.046-1.597-.643-3.836-.869-5.854-.59z" fill="#000"/></svg>