<svg width="108" height="38" viewBox="0 0 108 38" fill="none" xmlns="http://www.w3.org/2000/svg">
<path fill-rule="evenodd" clip-rule="evenodd" d="M14.4127 0.0686747C13.1972 0.333594 11.5929 1.33875 10.5577 2.48398C9.62682 3.51392 8.82994 5.02563 8.54371 6.30488C8.08152 8.37012 8.34968 10.4826 9.32245 12.4403C10.4964 14.8026 12.1131 16.0567 13.9846 16.0567C15.7333 16.0567 17.2791 14.97 18.1469 13.1304C18.7074 11.9425 18.8919 10.6998 18.8899 8.12555C18.8887 6.54137 18.8285 5.68565 18.6417 4.60084C18.3639 2.98648 17.8232 1.62896 17.1612 0.884134C16.8596 0.544692 16.3201 0.200062 15.9172 0.0894253C15.5139 -0.021361 14.8668 -0.0302898 14.4127 0.0686747ZM24.1514 0.064036C22.707 0.478799 21.7801 2.03504 21.3404 4.7835C21.0542 6.57239 21.0147 9.05503 21.2423 10.9438C21.6019 13.9278 23.5826 16.0579 25.9952 16.0555C26.5904 16.0548 27.0303 15.971 27.5387 15.7614C28.7835 15.2481 29.8571 14.1054 30.7061 12.3904C31.1229 11.5483 31.3669 10.8611 31.5462 10.0239C31.6658 9.46506 31.6805 9.28728 31.6825 8.37495C31.685 7.21776 31.6025 6.66961 31.2787 5.69034C30.4424 3.16166 28.323 0.950426 26.0029 0.186145C25.6222 0.0607437 25.4411 0.0310643 24.9628 0.0158006C24.5765 0.00347996 24.3063 0.019492 24.1514 0.064036ZM2.97321 9.9744C2.4727 10.1316 1.99032 10.5453 1.60905 11.1445C0.86657 12.3114 0.176811 14.8499 0.0269447 16.9671C-0.148101 19.4407 0.534406 21.5903 1.9382 22.9865C2.61552 23.6602 3.29379 24.101 4.16535 24.4339C5.66376 25.0063 7.40047 24.9869 8.34399 24.3872C8.9503 24.0018 9.4272 23.2815 9.66524 22.3916C9.76752 22.0093 9.7787 21.8523 9.77885 20.7954C9.779 19.7923 9.76263 19.5352 9.66554 19.0133C8.93751 15.1019 6.65748 11.1567 4.54248 10.1488C3.93385 9.85877 3.49639 9.81019 2.97321 9.9744ZM36.0165 9.93833C34.6025 10.302 33.0426 12.0306 31.7881 14.6238C30.7536 16.7623 30.1912 18.9451 30.1917 20.8203C30.1921 22.3097 30.4873 23.251 31.1834 23.9819C31.7579 24.5851 32.4812 24.843 33.5993 24.8435C34.2895 24.8437 34.6861 24.7894 35.3171 24.6083C36.4113 24.2942 37.2594 23.7938 38.0609 22.9892C39.2066 21.8392 39.8118 20.3911 39.9741 18.4118C40.1578 16.1726 39.338 12.5213 38.3176 11.0329C37.6934 10.1225 36.8536 9.72305 36.0165 9.93833ZM18.9702 16.3326C17.5092 16.5347 16.4139 17.1448 15.4312 18.3039C15.1882 18.5905 14.6141 19.3834 14.1555 20.0658C13.2385 21.4303 12.7805 22.0618 12.27 22.6659C11.8529 23.1595 10.8614 24.1186 10.3665 24.5073C9.035 25.5532 8.09567 27.0588 7.76351 28.6798C7.56434 29.6515 7.62829 31.0011 7.92118 32.007C8.05407 32.4635 8.44128 33.315 8.70898 33.7396C9.38474 34.8113 10.4543 35.7579 11.6322 36.3269C12.6906 36.8381 13.5164 37.0273 14.6897 37.0273C15.5662 37.0273 16.0222 36.9574 16.9558 36.68C18.9537 36.0864 20.9468 36.0649 22.8182 36.6165C23.6901 36.8735 24.0616 36.9526 24.6908 37.0147C26.0779 37.1519 27.5897 36.8134 28.8283 36.0884C30.6017 35.0504 31.7952 33.4219 32.2235 31.4556C32.3584 30.8362 32.3847 29.4274 32.272 28.8512C31.9111 27.0048 31.1341 25.7511 29.5199 24.4106C28.7356 23.7593 27.7792 22.7628 27.1918 21.985C26.9152 21.6188 26.3207 20.7692 25.8706 20.097C25.0083 18.8095 24.6766 18.373 24.1823 17.8758C23.6316 17.3221 23.082 16.953 22.3982 16.6778C21.4627 16.3012 20.1517 16.1693 18.9702 16.3326Z" fill="#333333"/>
<path d="M55.328 28H58.184L61.712 15.712L65.24 28H68.096L73.136 10.72H70.1L66.668 23.2L63.224 10.72L60.188 10.744L56.756 23.2L53.312 10.72H50.276L55.328 28ZM79.2275 28.372C80.1635 28.372 80.9835 28.212 81.6875 27.892C82.3995 27.564 82.9915 27.12 83.4635 26.56V28H86.0195V15.04H83.1155V21.7C83.1155 22.748 82.9635 23.56 82.6595 24.136C82.3635 24.704 81.9835 25.1 81.5195 25.324C81.0555 25.54 80.5755 25.648 80.0795 25.648C79.3915 25.648 78.8435 25.5 78.4355 25.204C78.0275 24.9 77.7235 24.52 77.5235 24.064C77.3315 23.6 77.2035 23.12 77.1395 22.624C77.0835 22.128 77.0555 21.68 77.0555 21.28V15.04H74.1275V22.276C74.1275 22.58 74.1515 22.984 74.1995 23.488C74.2555 23.992 74.3715 24.524 74.5475 25.084C74.7235 25.644 74.9955 26.176 75.3635 26.68C75.7315 27.176 76.2275 27.584 76.8515 27.904C77.4835 28.216 78.2755 28.372 79.2275 28.372ZM89.3669 28H92.3189V21.76L97.2749 28H101.103L95.6429 21.52L100.671 15.04H97.0589L92.3189 21.28V10.72H89.3909L89.3669 28ZM102.545 13.072H105.437V10.42H102.545V13.072ZM102.545 28H105.437V15.04H102.545V28Z" fill="#333333"/>
</svg>
