<svg width="70" height="65" viewBox="0 0 70 65" fill="none" xmlns="http://www.w3.org/2000/svg">
<path fill-rule="evenodd" clip-rule="evenodd" d="M25.411 0.859315C23.3351 1.31173 20.5954 3.0283 18.8276 4.98407C17.2378 6.74297 15.8769 9.32459 15.3881 11.5093C14.5988 15.0362 15.0568 18.6439 16.718 21.987C18.7228 26.0213 21.4837 28.163 24.6798 28.163C27.6663 28.163 30.306 26.3071 31.7881 23.1657C32.7452 21.1369 33.0603 19.0147 33.0569 14.6185C33.0548 11.9131 32.952 10.4518 32.6331 8.59916C32.1586 5.84222 31.2352 3.52391 30.1048 2.25192C29.5897 1.67224 28.6683 1.08369 27.9803 0.894752C27.2916 0.705555 26.1865 0.690307 25.411 0.859315ZM42.0423 0.851393C39.5756 1.55971 37.9926 4.2174 37.2418 8.9111C36.7531 11.9661 36.6856 16.2059 37.0743 19.4315C37.6884 24.5273 41.0709 28.1651 45.191 28.1609C46.2076 28.1598 46.9588 28.0167 47.827 27.6587C49.9527 26.7822 51.7863 24.8307 53.2361 21.9018C53.948 20.4637 54.3646 19.2902 54.6708 17.8605C54.8751 16.9061 54.9002 16.6025 54.9036 15.0444C54.9078 13.0682 54.767 12.1321 54.2139 10.4598C52.7858 6.14139 49.1663 2.36513 45.2042 1.05993C44.5541 0.845771 44.2447 0.795085 43.428 0.769019C42.7683 0.747978 42.3069 0.775323 42.0423 0.851393ZM5.87506 17.7759C5.02031 18.0443 4.19651 18.7509 3.54541 19.7741C2.27742 21.7669 1.09948 26.1021 0.843546 29.7177C0.54461 33.9421 1.71017 37.6131 4.1075 39.9975C5.2642 41.1479 6.42254 41.9008 7.91094 42.4693C10.4699 43.4468 13.4358 43.4137 15.047 42.3895C16.0825 41.7313 16.8969 40.5013 17.3034 38.9815C17.4781 38.3286 17.4972 38.0605 17.4974 36.2555C17.4977 34.5426 17.4698 34.1034 17.3039 33.2122C16.0606 26.5325 12.1669 19.795 8.55499 18.0738C7.5156 17.5784 6.76852 17.4955 5.87506 17.7759ZM62.305 17.7143C59.8903 18.3353 57.2263 21.2873 55.0839 25.7159C53.3172 29.3681 52.3569 33.0957 52.3577 36.2981C52.3583 38.8416 52.8625 40.4491 54.0513 41.6973C55.0323 42.7274 56.2675 43.1679 58.177 43.1687C59.3557 43.1691 60.033 43.0764 61.1105 42.7671C62.9792 42.2307 64.4276 41.376 65.7963 40.0021C67.7529 38.038 68.7866 35.565 69.0637 32.1849C69.3773 28.361 67.9774 22.1255 66.2347 19.5835C65.1687 18.0288 63.7347 17.3467 62.305 17.7143ZM33.194 28.6342C30.699 28.9793 28.8285 30.0213 27.1503 32.0006C26.7353 32.4902 25.7549 33.8442 24.9717 35.0095C23.4057 37.3398 22.6236 38.4183 21.7517 39.45C21.0394 40.2928 19.3461 41.9308 18.501 42.5946C16.2271 44.3807 14.623 46.952 14.0557 49.7202C13.7156 51.3797 13.8248 53.6845 14.325 55.4022C14.5519 56.1818 15.2132 57.636 15.6704 58.3611C16.8244 60.1913 18.651 61.808 20.6626 62.7796C22.47 63.6526 23.8804 63.9757 25.884 63.9757C27.3808 63.9757 28.1596 63.8564 29.754 63.3827C33.166 62.369 36.5696 62.3322 39.7655 63.2742C41.2544 63.7131 41.889 63.8481 42.9634 63.9543C45.3323 64.1885 47.9141 63.6105 50.0293 62.3724C53.0579 60.5997 55.0961 57.8186 55.8276 54.4606C56.058 53.4028 56.1028 50.9969 55.9104 50.013C55.2939 46.8597 53.967 44.7187 51.2105 42.4295C49.871 41.3172 48.2376 39.6153 47.2345 38.2871C46.7622 37.6617 45.7469 36.2108 44.9782 35.063C43.5057 32.8641 42.9392 32.1187 42.095 31.2697C41.1547 30.324 40.2161 29.6936 39.0483 29.2237C37.4506 28.5806 35.2117 28.3552 33.194 28.6342Z" fill="#828282"/>
</svg>
